<?xml version="1.0" encoding="UTF-8"?>
<svg width="102px" height="102px" viewBox="0 0 102 102" version="1.1" xmlns="http://www.w3.org/2000/svg" xmlns:xlink="http://www.w3.org/1999/xlink">
    <!-- Generator: Sketch 50.2 (55047) - http://www.bohemiancoding.com/sketch -->
    <title>Back Button</title>
    <desc>Created with Sketch.</desc>
    <defs>
        <linearGradient x1="0.25781251%" y1="49.7500002%" x2="101.257813%" y2="49.7500002%" id="linearGradient-1">
            <stop stop-color="#5073B8" offset="0%"></stop>
            <stop stop-color="#13A793" offset="47.5247532%"></stop>
            <stop stop-color="#6DBA82" offset="100%"></stop>
        </linearGradient>
    </defs>
    <g id="Page-1" stroke="none" stroke-width="1" fill="none" fill-rule="evenodd">
        <g id="Desktop-HD" transform="translate(-78.000000, -61.000000)">
            <g id="Back-Button" transform="translate(78.939476, 61.959870)">
                <g id="left-arrow" transform="translate(23.913930, 32.117967)" fill="url(#linearGradient-1)" fill-rule="nonzero">
                    <path d="M17.5541945,0.712947707 C18.282713,-0.0155707623 19.4296373,-0.0155707623 20.1581558,0.712947707 C20.8620621,1.41685407 20.8620621,2.58839052 20.1581558,3.29065608 L6.95457892,16.4942329 L50.5245777,16.4942329 C51.5402374,16.4942329 52.3737676,17.3015102 52.3737676,18.3171699 C52.3737676,19.3328297 51.5402374,20.1663598 50.5245777,20.1663598 L6.95457892,20.1663598 L20.1581558,33.3453246 C20.8620621,34.073843 20.8620621,35.2470203 20.1581558,35.9492858 C19.4296373,36.6778043 18.282713,36.6778043 17.5541945,35.9492858 L1.2248796,19.619971 C0.520973246,18.9160646 0.520973246,17.7445281 1.2248796,17.0422626 L17.5541945,0.712947707 Z" id="Shape"></path>
                </g>
                <circle id="Oval-7" stroke="url(#linearGradient-1)" stroke-width="2" cx="50.0446246" cy="50.0446246" r="49.5253935"></circle>
            </g>
        </g>
    </g>
</svg>