<?xml version="1.0" encoding="UTF-8"?>
<svg width="268px" height="268px" viewBox="0 0 268 268" version="1.1" xmlns="http://www.w3.org/2000/svg" xmlns:xlink="http://www.w3.org/1999/xlink">
    <!-- Generator: Sketch 50.2 (55047) - http://www.bohemiancoding.com/sketch -->
    <title>Canarie-App</title>
    <desc>Created with Sketch.</desc>
    <defs>
        <filter x="-2.7%" y="-1.9%" width="105.4%" height="105.4%" filterUnits="objectBoundingBox" id="filter-1">
            <feOffset dx="0" dy="2" in="SourceAlpha" result="shadowOffsetOuter1"></feOffset>
            <feGaussianBlur stdDeviation="2" in="shadowOffsetOuter1" result="shadowBlurOuter1"></feGaussianBlur>
            <feColorMatrix values="0 0 0 0 0   0 0 0 0 0   0 0 0 0 0  0 0 0 0.5 0" type="matrix" in="shadowBlurOuter1" result="shadowMatrixOuter1"></feColorMatrix>
            <feMerge>
                <feMergeNode in="shadowMatrixOuter1"></feMergeNode>
                <feMergeNode in="SourceGraphic"></feMergeNode>
            </feMerge>
        </filter>
    </defs>
    <g id="Page-1" stroke="none" stroke-width="1" fill="none" fill-rule="evenodd">
        <g id="Desktop-HD" transform="translate(-246.000000, -183.000000)" stroke="#FFFFFF" stroke-width="2">
            <g id="Canarie-App" filter="url(#filter-1)" transform="translate(250.000000, 185.000000)">
                <rect id="Rectangle" x="1" y="1.06299905" width="257.552536" height="257.552536" rx="55"></rect>
                <g id="Canarie-Logo" transform="translate(27.776268, 48.339267)">
                    <g id="Canarie-Half" transform="translate(52.000000, 0.000000)">
                        <polygon id="Path-3" points="52.3742765 0 67.5027701 29.9437782 67.5027701 46.2861804 67.3242544 50.1865031 67.0700405 56.7156378 66.5915643 61.2467695 66.0036268 65.5839244 65.4108503 69.3690171 64.9834339 73.014363 64.2826978 76.3192275 63.842433 78.3118909 63.3364246 80.5233101 62.8207383 83.3058972 61.9913518 86.405021 61.254073 88.8964343 60.5727764 91.0195836 59.7005064 94.1109484 58.8416688 96.609203 57.7640754 99.5815954 56.1954912 103.570176 55.0791025 106.308878 54.0846897 108.446545 53.2793313 110.38089 51.8620907 113.243404 50.5061719 115.838438 49.1537572 118.212631 47.8821869 120.415207 46.64766 122.488297 45.0259304 124.899867 43.0666393 127.704397 41.5300926 129.792255 40.012151 131.759472 38.3036532 133.794935 36.7657716 135.627745 34.5576062 138.016205 32.410095 140.197839 30.3304966 142.203518 28.2997887 144.05243 26.200751 145.930793 24.4484519 147.348367 23.159695 148.393506 21.439934 149.674671 19.3618374 151.11644 17.602113 152.327689 15.7990046 153.377834 13.7251629 154.77405 11.3726621 156.095011 9.26169368 157.357821 7.43403767 158.152467 5.56863112 159.086962 4.09080325 159.83818 1.59799199 160.926655 0 161.670607 4.0156379 159.421473 6.30789661 158.061097 7.60649947 157.306564 9.02118175 156.228268 10.130984 155.39502 11.3033961 154.566762 12.3556106 153.771884 13.3093903 152.96281 13.9702093 152.447668 15.0098683 151.599287 16.0167493 150.714546 17.0065213 149.784906 17.8352821 148.900968 18.9866011 147.949699 19.8233304 147.020026 20.5988226 146.222302 21.6109266 145.189741 22.2000288 144.422218 23.0603958 143.489766 23.9164773 142.538899 24.7348255 141.542062 25.7056806 140.468219 26.5464612 139.351218 27.4609674 138.225077 28.4879706 136.949041 29.3626006 135.678227 30.5869421 134.041296 31.3109067 132.754312 32.1328708 131.553072 32.8220484 130.612417 33.751385 129.046601 34.5576062 127.856242 35.1669396 126.777511 35.7508187 125.727037 36.3903771 124.571734 37.2417043 123.135256 37.7488109 122.138051 38.3688498 120.663805 39.1445763 119.26506 39.7824606 118.024949 40.2219687 116.885583 40.916905 115.450243 41.5300926 114.049857 42.1608665 112.761499 42.6669353 111.424627 43.1363421 110.274279 43.7327432 108.900344 44.2998147 107.472168 44.8133833 105.867313 45.4653967 103.857167 46.1301664 102.147281 46.7026619 100.533653 47.0542483 99.0787263 47.4245172 97.7607378 47.8821869 96.3720034 48.271023 94.9534708 48.6418276 93.7481467 49.0404886 92.4507156 49.3272553 91.0195836 49.7085398 89.1296717 50.1688819 87.130077 50.6768012 85.2022981 51.0127995 83.3961627 51.3963107 81.7137925 51.704277 79.3351228 51.9671735 77.6396366 52.2115534 76.3192275 52.3742765 75.2744891 52.6666735 73.8692655 52.9257234 72.1623434 53.1585442 70.2406072 53.4132322 68.1389601 53.6940749 65.1851803 53.8802146 62.7492291 54.0846897 60.2892213 54.3933466 56.0157267 54.6244451 51.4414131 54.8283716 45.5986745 55.0791025 34.9234389 54.8283716 27.2799741 54.6244451 25.3502179 54.4792386 23.3531693 54.3933466 21.3847596 54.2030312 18.9502531 54.0846897 16.6955046 53.8802146 14.5842014 53.5984046 11.1918719 53.2793313 7.36730089 52.9257234 5.05908645 52.5476933 2.38458508 52.3742765 1.09207326"></polygon>
                        <polygon id="Path-2" points="73.2178978 34.663162 90.943074 24 90.5716423 28.9143898 90.2977739 31.4598043 90.0092321 34.4675355 89.6586428 36.7290199 89.2627756 39.4568037 88.8592573 42.3898054 88.3527108 45.5246711 87.9430087 47.833844 87.3235818 51.9930174 86.6628599 55.1147818 86.2547299 57.3374865 85.7161116 59.8005204 85.2326233 62.3805222 84.5464325 65.1115552 83.8788979 67.7520323 83.3371353 70.048628 82.7229489 72.5807317 82.0804859 74.8694666 81.3438596 77.3871065 80.706091 79.8704735 79.8129006 82.5617835 78.791318 85.4290694 77.9388986 88.0507856 76.8632341 90.8339091 75.9589338 93.493252 74.8915492 96.0064899 73.8980557 98.5337723 72.949316 100.7243 71.4129069 104.004328 70.3825203 105.883256 69.2916583 108.167484 67.9010398 110.626849 66.9562829 112.422768 65.7911106 114.411222 64.7966738 116.065648 63.6421922 118.074435 62.2965372 119.94697 61.2643688 121.516918 60.2247588 122.908165 58.8359221 124.79181 57.4763274 126.473486 56.359263 127.902569 54.899994 129.573974 52.6837875 132.189087 51.1386792 133.788696 49.1470805 135.920845 47.1293841 137.810988 45.3808396 139.480191 43.3423908 141.185449 41.1559504 143.004531 38.9536837 144.780326 36.6225007 146.430873 34.1012973 148.126174 31.6593302 149.629987 28.7188869 151.29961 26.1193905 152.67262 23.4744065 153.985365 20.6906541 155.384787 17.5810476 156.730023 14.032497 158.235723 10.522831 159.509897 7.80877722 160.432434 5.03309523 161.239261 2 162.159388 5.8172833 160.56701 9.8620042 158.621109 12.8549572 157.089102 15.6800047 155.552378 17.7757845 154.1866 20.291433 152.468765 23.1099823 150.557974 25.3211579 148.870429 28.1315319 146.703379 30.2835947 144.780326 32.4972857 142.829184 34.6644411 140.748077 37.0532696 138.477265 39.6392456 135.780609 41.6348271 133.493551 43.6370116 131.163312 45.2127244 129.019424 47.3889983 126.281788 49.1470805 123.906375 50.551429 121.70589 52.2215756 119.007873 54.0505093 116.065648 55.8559656 112.968409 57.2201719 110.316926 58.6847862 107.270835 60.2247588 104.164373 62.020363 99.8716713 63.2006278 96.8363751 64.120964 94.2702082 65.1080642 91.753302 66.4759389 87.2614618 67.277735 84.7634214 68.1044759 81.1541858 69.0099291 77.9062302 69.7211695 74.6452781 70.3825203 70.9763009 70.969456 67.4749148 71.5664535 63.7820409 72.058117 59.8005204 72.4421406 55.6778209 72.7443077 51.125191 73.1091822 46.3580871"></polygon>
                        <polygon id="Path-4" points="85.23861 80.7215468 108.355516 57 107.472873 62.4079738 106.746652 65.4282337 106.097625 68.257184 105.433215 70.7545586 104.630218 73.8708929 103.542214 77.3674692 102.437848 80.9476736 101.328308 83.9258398 100.036408 87.47346 98.7590522 90.4861682 97.2524884 93.8654135 95.6200629 97.2550074 94.0599379 100.103676 92.231308 103.369786 90.5351126 106.416197 88.5670561 109.400516 86.712275 112.361062 84.7447778 114.968076 82.6027525 117.708084 80.5277135 120.374672 78.6656604 122.634588 76.5153842 125.042461 74.3425927 127.26322 72.456486 129.194078 70.5549963 131.104098 68.5786888 132.836933 66.6475516 134.579138 64.7646614 136.180517 62.4984526 138.060751 59.9898902 139.869103 57.6888597 141.437199 54.975003 143.298553 53.0069464 144.603179 50.0929697 146.379926 47.1521425 148.100175 44.4076594 149.530522 41.1303621 151.203923 37.5551921 152.751601 33.9644993 154.311307 29.8306436 155.958276 25.1270541 157.393658 20.3160627 159.010841 15.8907673 160.106536 11.8587197 161.098186 9.57027528 161.473813 6 162.045085 11.6572012 160.533906 14.7686408 159.423947 17.6645774 158.462783 20.1062933 157.393658 23.3656903 155.958276 25.8734136 154.741194 28.4637861 153.336438 30.7811787 152.148025 33.6775348 150.412253 36.405516 148.769479 38.6910236 147.378148 41.3058593 145.442401 43.5076081 143.862648 46.2375119 141.771584 49.1493826 139.368919 51.9683148 136.939286 54.4955988 134.579138 56.512373 132.442449 58.5127051 130.433896 61.2051127 127.471195 63.6860778 124.452049 65.5926694 121.936996 68.2017633 118.288636 70.2654579 115.264377 72.3185252 111.973935 73.6308922 109.819909 74.9250124 107.471584 76.1590785 105.194842 77.6506052 102.183416 78.6656604 99.89685 79.8679941 97.2550074 80.9613993 94.5667752 82.0277351 91.8177222 82.8758109 89.4149577 83.6014727 87.3007335 84.4913558 84.5726343"></polygon>
                        <polygon id="Path-5" points="115.5383 72.1453625 141.717609 68 138.068471 75.3524439 136.0458 79.1052524 133.953767 82.7996515 130.934728 87.7505843 128.13375 92.1368922 124.337621 97.5473129 120.633244 102.582696 117.40028 106.839773 114.17121 110.525897 112.190155 112.994184 109.467543 115.88302 106.311279 118.940572 103.473286 121.659273 101.028763 123.759984 97.8620104 126.513853 94.9525539 128.890711 91.8609223 131.322432 89.5105114 133.00604 87.0481226 134.76702 84.2723081 136.526452 81.1681563 138.555981 79.0623806 139.855966 75.8769182 141.795604 72.7110098 143.458251 69.4583044 145.105283 66.487232 146.552555 63.1489957 147.985479 60.6040302 149.181363 57.4447335 150.462357 54.1404001 151.721124 50.8304397 152.849203 46.2794376 154.364 42.9064544 155.329036 39.5227799 156.36877 34.9371715 157.389795 31.84765 158.162386 28.8862842 158.776436 26.3145903 159.172298 22.106415 159.906625 21 160.092036 29.397922 157.952358 32.433846 156.883925 35.3144639 155.903696 38.3876246 154.55521 41.5318731 153.270154 45.0606197 151.721124 47.4733285 150.462357 50.1867001 149.181363 52.710937 147.751495 55.3269214 146.329745 57.4447335 145.105283 59.5935206 143.789431 62.056901 142.284434 64.3368705 140.746273 66.0273828 139.469382 67.9084607 138.086267 70.0046825 136.526452 72.0578081 135.018025 74.2799514 133.30142 76.3014283 131.62286 78.2502648 129.863663 80.0805869 128.136199 82.1675498 126.16834 84.1130193 124.232045 85.6660786 122.556768 87.3921957 120.730739 88.7846546 119.100578 90.8599175 116.82448 92.66886 114.610249 94.3753649 112.497698 96.0056942 110.281447 97.5420032 108.03582 99.1457341 105.906097 100.614705 103.71131 101.983596 101.424691 103.267726 99.4357887 104.423661 97.4258433 105.58633 95.2169151 106.603297 93.3498098 107.763862 91.2826274 108.822831 88.942559 110.181285 86.3701757 111.378717 83.4979714 112.190155 81.3089078 113.097848 79.1052524 113.983675 76.7465279 114.838106 74.6716859"></polygon>
                        <polygon id="Path-6" points="135.927073 96 151.652843 105.501994 149.717842 107.972069 147.924406 110.298097 146.206149 112.197728 144.091858 114.396453 141.69682 116.638046 138.95024 119.203741 135.927073 121.70416 133.3806 123.573588 130.626063 125.613998 127.16227 127.89245 122.920537 130.492244 119.578688 132.308251 115.866785 134.330799 112.772883 135.925651 109.43006 137.517092 106.32463 138.988051 102.703658 140.577057 98.4892032 142.197564 93.5866015 144.066668 88.9450996 145.649991 85.6875236 146.634148 81.1564369 147.970823 76.2656887 149.214294 71.6055136 150.358554 67.3114951 151.224989 61.8741911 152.277669 57.6758118 152.989848 54.7649073 153.418194 51.0948976 153.709496 50 153.709496 54.7649073 152.575303 58.7763925 151.224989 61.6176379 150.358554 64.4605071 149.488871 67.3114951 148.35549 70.2310055 147.308656 73.1747098 145.904433 76.5694931 144.32111 80.1758516 142.69151 84.0368148 140.577057 87.7798935 138.599487 90.9676481 136.813357 94.3315801 134.777007 97.5272911 132.639659 100.546825 130.492244 103.911244 128.170112 107.320803 125.613998 110.308999 123.116826 113.379518 120.571429 115.866785 118.29249 118.31427 116.110001 121.033084 113.389401 123.603325 110.73505 126.587136 107.495172 129.458421 104.261141 132.250467 100.790366"></polygon>
                    </g>
                    <g id="Canarie-Half" transform="translate(76.000000, 81.500000) scale(-1, 1) translate(-76.000000, -81.500000) ">
                        <polygon id="Path-3" points="52.3742765 0 67.5027701 29.9437782 67.5027701 46.2861804 67.3242544 50.1865031 67.0700405 56.7156378 66.5915643 61.2467695 66.0036268 65.5839244 65.4108503 69.3690171 64.9834339 73.014363 64.2826978 76.3192275 63.842433 78.3118909 63.3364246 80.5233101 62.8207383 83.3058972 61.9913518 86.405021 61.254073 88.8964343 60.5727764 91.0195836 59.7005064 94.1109484 58.8416688 96.609203 57.7640754 99.5815954 56.1954912 103.570176 55.0791025 106.308878 54.0846897 108.446545 53.2793313 110.38089 51.8620907 113.243404 50.5061719 115.838438 49.1537572 118.212631 47.8821869 120.415207 46.64766 122.488297 45.0259304 124.899867 43.0666393 127.704397 41.5300926 129.792255 40.012151 131.759472 38.3036532 133.794935 36.7657716 135.627745 34.5576062 138.016205 32.410095 140.197839 30.3304966 142.203518 28.2997887 144.05243 26.200751 145.930793 24.4484519 147.348367 23.159695 148.393506 21.439934 149.674671 19.3618374 151.11644 17.602113 152.327689 15.7990046 153.377834 13.7251629 154.77405 11.3726621 156.095011 9.26169368 157.357821 7.43403767 158.152467 5.56863112 159.086962 4.09080325 159.83818 1.59799199 160.926655 0 161.670607 4.0156379 159.421473 6.30789661 158.061097 7.60649947 157.306564 9.02118175 156.228268 10.130984 155.39502 11.3033961 154.566762 12.3556106 153.771884 13.3093903 152.96281 13.9702093 152.447668 15.0098683 151.599287 16.0167493 150.714546 17.0065213 149.784906 17.8352821 148.900968 18.9866011 147.949699 19.8233304 147.020026 20.5988226 146.222302 21.6109266 145.189741 22.2000288 144.422218 23.0603958 143.489766 23.9164773 142.538899 24.7348255 141.542062 25.7056806 140.468219 26.5464612 139.351218 27.4609674 138.225077 28.4879706 136.949041 29.3626006 135.678227 30.5869421 134.041296 31.3109067 132.754312 32.1328708 131.553072 32.8220484 130.612417 33.751385 129.046601 34.5576062 127.856242 35.1669396 126.777511 35.7508187 125.727037 36.3903771 124.571734 37.2417043 123.135256 37.7488109 122.138051 38.3688498 120.663805 39.1445763 119.26506 39.7824606 118.024949 40.2219687 116.885583 40.916905 115.450243 41.5300926 114.049857 42.1608665 112.761499 42.6669353 111.424627 43.1363421 110.274279 43.7327432 108.900344 44.2998147 107.472168 44.8133833 105.867313 45.4653967 103.857167 46.1301664 102.147281 46.7026619 100.533653 47.0542483 99.0787263 47.4245172 97.7607378 47.8821869 96.3720034 48.271023 94.9534708 48.6418276 93.7481467 49.0404886 92.4507156 49.3272553 91.0195836 49.7085398 89.1296717 50.1688819 87.130077 50.6768012 85.2022981 51.0127995 83.3961627 51.3963107 81.7137925 51.704277 79.3351228 51.9671735 77.6396366 52.2115534 76.3192275 52.3742765 75.2744891 52.6666735 73.8692655 52.9257234 72.1623434 53.1585442 70.2406072 53.4132322 68.1389601 53.6940749 65.1851803 53.8802146 62.7492291 54.0846897 60.2892213 54.3933466 56.0157267 54.6244451 51.4414131 54.8283716 45.5986745 55.0791025 34.9234389 54.8283716 27.2799741 54.6244451 25.3502179 54.4792386 23.3531693 54.3933466 21.3847596 54.2030312 18.9502531 54.0846897 16.6955046 53.8802146 14.5842014 53.5984046 11.1918719 53.2793313 7.36730089 52.9257234 5.05908645 52.5476933 2.38458508 52.3742765 1.09207326"></polygon>
                        <polygon id="Path-2" points="73.2178978 34.663162 90.943074 24 90.5716423 28.9143898 90.2977739 31.4598043 90.0092321 34.4675355 89.6586428 36.7290199 89.2627756 39.4568037 88.8592573 42.3898054 88.3527108 45.5246711 87.9430087 47.833844 87.3235818 51.9930174 86.6628599 55.1147818 86.2547299 57.3374865 85.7161116 59.8005204 85.2326233 62.3805222 84.5464325 65.1115552 83.8788979 67.7520323 83.3371353 70.048628 82.7229489 72.5807317 82.0804859 74.8694666 81.3438596 77.3871065 80.706091 79.8704735 79.8129006 82.5617835 78.791318 85.4290694 77.9388986 88.0507856 76.8632341 90.8339091 75.9589338 93.493252 74.8915492 96.0064899 73.8980557 98.5337723 72.949316 100.7243 71.4129069 104.004328 70.3825203 105.883256 69.2916583 108.167484 67.9010398 110.626849 66.9562829 112.422768 65.7911106 114.411222 64.7966738 116.065648 63.6421922 118.074435 62.2965372 119.94697 61.2643688 121.516918 60.2247588 122.908165 58.8359221 124.79181 57.4763274 126.473486 56.359263 127.902569 54.899994 129.573974 52.6837875 132.189087 51.1386792 133.788696 49.1470805 135.920845 47.1293841 137.810988 45.3808396 139.480191 43.3423908 141.185449 41.1559504 143.004531 38.9536837 144.780326 36.6225007 146.430873 34.1012973 148.126174 31.6593302 149.629987 28.7188869 151.29961 26.1193905 152.67262 23.4744065 153.985365 20.6906541 155.384787 17.5810476 156.730023 14.032497 158.235723 10.522831 159.509897 7.80877722 160.432434 5.03309523 161.239261 2 162.159388 5.8172833 160.56701 9.8620042 158.621109 12.8549572 157.089102 15.6800047 155.552378 17.7757845 154.1866 20.291433 152.468765 23.1099823 150.557974 25.3211579 148.870429 28.1315319 146.703379 30.2835947 144.780326 32.4972857 142.829184 34.6644411 140.748077 37.0532696 138.477265 39.6392456 135.780609 41.6348271 133.493551 43.6370116 131.163312 45.2127244 129.019424 47.3889983 126.281788 49.1470805 123.906375 50.551429 121.70589 52.2215756 119.007873 54.0505093 116.065648 55.8559656 112.968409 57.2201719 110.316926 58.6847862 107.270835 60.2247588 104.164373 62.020363 99.8716713 63.2006278 96.8363751 64.120964 94.2702082 65.1080642 91.753302 66.4759389 87.2614618 67.277735 84.7634214 68.1044759 81.1541858 69.0099291 77.9062302 69.7211695 74.6452781 70.3825203 70.9763009 70.969456 67.4749148 71.5664535 63.7820409 72.058117 59.8005204 72.4421406 55.6778209 72.7443077 51.125191 73.1091822 46.3580871"></polygon>
                        <polygon id="Path-4" points="85.23861 80.7215468 108.355516 57 107.472873 62.4079738 106.746652 65.4282337 106.097625 68.257184 105.433215 70.7545586 104.630218 73.8708929 103.542214 77.3674692 102.437848 80.9476736 101.328308 83.9258398 100.036408 87.47346 98.7590522 90.4861682 97.2524884 93.8654135 95.6200629 97.2550074 94.0599379 100.103676 92.231308 103.369786 90.5351126 106.416197 88.5670561 109.400516 86.712275 112.361062 84.7447778 114.968076 82.6027525 117.708084 80.5277135 120.374672 78.6656604 122.634588 76.5153842 125.042461 74.3425927 127.26322 72.456486 129.194078 70.5549963 131.104098 68.5786888 132.836933 66.6475516 134.579138 64.7646614 136.180517 62.4984526 138.060751 59.9898902 139.869103 57.6888597 141.437199 54.975003 143.298553 53.0069464 144.603179 50.0929697 146.379926 47.1521425 148.100175 44.4076594 149.530522 41.1303621 151.203923 37.5551921 152.751601 33.9644993 154.311307 29.8306436 155.958276 25.1270541 157.393658 20.3160627 159.010841 15.8907673 160.106536 11.8587197 161.098186 9.57027528 161.473813 6 162.045085 11.6572012 160.533906 14.7686408 159.423947 17.6645774 158.462783 20.1062933 157.393658 23.3656903 155.958276 25.8734136 154.741194 28.4637861 153.336438 30.7811787 152.148025 33.6775348 150.412253 36.405516 148.769479 38.6910236 147.378148 41.3058593 145.442401 43.5076081 143.862648 46.2375119 141.771584 49.1493826 139.368919 51.9683148 136.939286 54.4955988 134.579138 56.512373 132.442449 58.5127051 130.433896 61.2051127 127.471195 63.6860778 124.452049 65.5926694 121.936996 68.2017633 118.288636 70.2654579 115.264377 72.3185252 111.973935 73.6308922 109.819909 74.9250124 107.471584 76.1590785 105.194842 77.6506052 102.183416 78.6656604 99.89685 79.8679941 97.2550074 80.9613993 94.5667752 82.0277351 91.8177222 82.8758109 89.4149577 83.6014727 87.3007335 84.4913558 84.5726343"></polygon>
                        <polygon id="Path-5" points="116.5383 71.1453625 142.717609 67 139.068471 74.3524439 137.0458 78.1052524 134.953767 81.7996515 131.934728 86.7505843 129.13375 91.1368922 125.337621 96.5473129 121.633244 101.582696 118.40028 105.839773 115.17121 109.525897 113.190155 111.994184 110.467543 114.88302 107.311279 117.940572 104.473286 120.659273 102.028763 122.759984 98.8620104 125.513853 95.9525539 127.890711 92.8609223 130.322432 90.5105114 132.00604 88.0481226 133.76702 85.2723081 135.526452 82.1681563 137.555981 80.0623806 138.855966 76.8769182 140.795604 73.7110098 142.458251 70.4583044 144.105283 67.487232 145.552555 64.1489957 146.985479 61.6040302 148.181363 58.4447335 149.462357 55.1404001 150.721124 51.8304397 151.849203 47.2794376 153.364 43.9064544 154.329036 40.5227799 155.36877 35.9371715 156.389795 32.84765 157.162386 29.8862842 157.776436 27.3145903 158.172298 23.106415 158.906625 22 159.092036 30.397922 156.952358 33.433846 155.883925 36.3144639 154.903696 39.3876246 153.55521 42.5318731 152.270154 46.0606197 150.721124 48.4733285 149.462357 51.1867001 148.181363 53.710937 146.751495 56.3269214 145.329745 58.4447335 144.105283 60.5935206 142.789431 63.056901 141.284434 65.3368705 139.746273 67.0273828 138.469382 68.9084607 137.086267 71.0046825 135.526452 73.0578081 134.018025 75.2799514 132.30142 77.3014283 130.62286 79.2502648 128.863663 81.0805869 127.136199 83.1675498 125.16834 85.1130193 123.232045 86.6660786 121.556768 88.3921957 119.730739 89.7846546 118.100578 91.8599175 115.82448 93.66886 113.610249 95.3753649 111.497698 97.0056942 109.281447 98.5420032 107.03582 100.145734 104.906097 101.614705 102.71131 102.983596 100.424691 104.267726 98.4357887 105.423661 96.4258433 106.58633 94.2169151 107.603297 92.3498098 108.763862 90.2826274 109.822831 87.942559 111.181285 85.3701757 112.378717 82.4979714 113.190155 80.3089078 114.097848 78.1052524 114.983675 75.7465279 115.838106 73.6716859"></polygon>
                        <polygon id="Path-6" points="135.927073 96 151.652843 105.501994 149.717842 107.972069 147.924406 110.298097 146.206149 112.197728 144.091858 114.396453 141.69682 116.638046 138.95024 119.203741 135.927073 121.70416 133.3806 123.573588 130.626063 125.613998 127.16227 127.89245 122.920537 130.492244 119.578688 132.308251 115.866785 134.330799 112.772883 135.925651 109.43006 137.517092 106.32463 138.988051 102.703658 140.577057 98.4892032 142.197564 93.5866015 144.066668 88.9450996 145.649991 85.6875236 146.634148 81.1564369 147.970823 76.2656887 149.214294 71.6055136 150.358554 67.3114951 151.224989 61.8741911 152.277669 57.6758118 152.989848 54.7649073 153.418194 51.0948976 153.709496 50 153.709496 54.7649073 152.575303 58.7763925 151.224989 61.6176379 150.358554 64.4605071 149.488871 67.3114951 148.35549 70.2310055 147.308656 73.1747098 145.904433 76.5694931 144.32111 80.1758516 142.69151 84.0368148 140.577057 87.7798935 138.599487 90.9676481 136.813357 94.3315801 134.777007 97.5272911 132.639659 100.546825 130.492244 103.911244 128.170112 107.320803 125.613998 110.308999 123.116826 113.379518 120.571429 115.866785 118.29249 118.31427 116.110001 121.033084 113.389401 123.603325 110.73505 126.587136 107.495172 129.458421 104.261141 132.250467 100.790366"></polygon>
                    </g>
                </g>
            </g>
        </g>
    </g>
</svg>