<?xml version="1.0" encoding="UTF-8"?>
<svg width="268px" height="268px" viewBox="0 0 268 268" version="1.1" xmlns="http://www.w3.org/2000/svg" xmlns:xlink="http://www.w3.org/1999/xlink">
    <!-- Generator: Sketch 50.2 (55047) - http://www.bohemiancoding.com/sketch -->
    <title>Critical-Mass-App</title>
    <desc>Created with Sketch.</desc>
    <defs>
        <filter x="-2.7%" y="-1.9%" width="105.4%" height="105.4%" filterUnits="objectBoundingBox" id="filter-1">
            <feOffset dx="0" dy="2" in="SourceAlpha" result="shadowOffsetOuter1"></feOffset>
            <feGaussianBlur stdDeviation="2" in="shadowOffsetOuter1" result="shadowBlurOuter1"></feGaussianBlur>
            <feColorMatrix values="0 0 0 0 0   0 0 0 0 0   0 0 0 0 0  0 0 0 0.5 0" type="matrix" in="shadowBlurOuter1" result="shadowMatrixOuter1"></feColorMatrix>
            <feMerge>
                <feMergeNode in="shadowMatrixOuter1"></feMergeNode>
                <feMergeNode in="SourceGraphic"></feMergeNode>
            </feMerge>
        </filter>
    </defs>
    <g id="Page-1" stroke="none" stroke-width="1" fill="none" fill-rule="evenodd">
        <g id="Desktop-HD" transform="translate(-926.000000, -183.000000)" stroke="#FFFFFF" stroke-width="2">
            <g id="Critical-Mass-App" filter="url(#filter-1)" transform="translate(930.000000, 185.000000)">
                <rect id="Rectangle-Copy-2" x="1.44746356" y="1.06299905" width="257.552536" height="257.552536" rx="55"></rect>
                <g id="CM" transform="translate(48.000000, 78.339267)">
                    <rect id="Rectangle-3" x="3.53009161" y="94.1809653" width="160.18349" height="10.7890069"></rect>
                    <polygon id="Path-45" points="87.0031981 1.99560429 87.0031981 68.6562705 97.7240271 68.6562705 97.7240271 14.79228 116.897873 62.0207139 128.028178 62.0207139 147.407128 14.79228 147.407128 68.6562705 158.541082 68.6562705 158.541082 1.99560429 141.859858 1.99560429 122.77214 49.1320703 103.370564 1.99560429"></polygon>
                    <g id="C" transform="translate(0.562263, 0.261124)">
                        <path d="M53.5534961,48.8623642 L61.4067044,55.4067044" id="Line" stroke-linecap="square"></path>
                        <path d="M53.5534961,20.0672671 L61.8640929,14.1562058" id="Line-2" stroke-linecap="square"></path>
                        <path d="M53.5215099,20.0737114 C49.2194148,14.5647896 42.5152712,11.0229275 34.9838813,11.0229275 C22.0014077,11.0229275 11.4770333,21.5473018 11.4770333,34.5297755 C11.4770333,47.5122491 22.0014077,58.0366234 34.9838813,58.0366234 C42.5850177,58.0366234 49.343515,54.4288568 53.6404128,48.832284" id="Oval-6"></path>
                        <path d="M62.5315991,14.1346417 C56.2757078,5.67069017 46.22479,0.182158736 34.891957,0.182158736 C15.9222921,0.182158736 0.544340234,15.5601106 0.544340234,34.5297755 C0.544340234,53.4994404 15.9222921,68.8773922 34.891957,68.8773922 C45.9714058,68.8773922 55.8256217,63.6315468 62.1063203,55.4881406" id="Oval-6"></path>
                        <polyline id="Path-48" transform="translate(61.326526, 55.740680) rotate(-5.000000) translate(-61.326526, -55.740680) " points="60.7589383 54.7476861 61.8941138 55.7885257 60.9692348 56.7336748"></polyline>
                        <polyline id="Path-49" transform="translate(61.723553, 13.638110) rotate(-2.000000) translate(-61.723553, -13.638110) " points="61.377941 12.631166 62.3269613 13.8419954 61.1201438 14.6450545"></polyline>
                    </g>
                </g>
            </g>
        </g>
    </g>
</svg>