<?xml version="1.0" encoding="UTF-8"?>
<svg width="268px" height="268px" viewBox="0 0 268 268" version="1.1" xmlns="http://www.w3.org/2000/svg" xmlns:xlink="http://www.w3.org/1999/xlink">
    <!-- Generator: Sketch 50.2 (55047) - http://www.bohemiancoding.com/sketch -->
    <title>Critical-Mass-App</title>
    <desc>Created with Sketch.</desc>
    <defs>
        <filter x="-2.7%" y="-1.9%" width="105.4%" height="105.4%" filterUnits="objectBoundingBox" id="filter-1">
            <feOffset dx="0" dy="2" in="SourceAlpha" result="shadowOffsetOuter1"></feOffset>
            <feGaussianBlur stdDeviation="2" in="shadowOffsetOuter1" result="shadowBlurOuter1"></feGaussianBlur>
            <feColorMatrix values="0 0 0 0 0.988235294   0 0 0 0 0.223529412   0 0 0 0 0.223529412  0 0 0 1 0" type="matrix" in="shadowBlurOuter1" result="shadowMatrixOuter1"></feColorMatrix>
            <feMerge>
                <feMergeNode in="shadowMatrixOuter1"></feMergeNode>
                <feMergeNode in="SourceGraphic"></feMergeNode>
            </feMerge>
        </filter>
    </defs>
    <g id="Page-1" stroke="none" stroke-width="1" fill="none" fill-rule="evenodd">
        <g id="Coloured-Icons" transform="translate(-926.000000, -183.000000)" stroke="#FFFFFF" stroke-width="2">
            <g id="Critical-Mass-App" filter="url(#filter-1)" transform="translate(930.000000, 185.000000)">
                <rect id="Rectangle-Copy-2" x="1.44746356" y="1.06299905" width="257.552536" height="257.552536" rx="55"></rect>
                <g id="CM" transform="translate(48.000000, 78.339267)">
                    <rect id="Rectangle-3" fill="#FC3939" x="3.53009161" y="94.1809653" width="160.18349" height="10.7890069"></rect>
                    <polygon id="Path-45" fill="#FFFFFF" points="87.0031981 1.99560429 87.0031981 68.6562705 97.7240271 68.6562705 97.7240271 14.79228 116.897873 62.0207139 128.028178 62.0207139 147.407128 14.79228 147.407128 68.6562705 158.541082 68.6562705 158.541082 1.99560429 141.859858 1.99560429 122.77214 49.1320703 103.370564 1.99560429"></polygon>
                    <g id="C" transform="translate(0.562263, 0.261124)" fill="#FFFFFF" stroke-linecap="square">
                        <path d="M61.1556533,14.6654998 L61.8640929,14.1562058 L53.5140259,20.0882684 C49.2194148,14.5647896 42.5152712,11.0229275 34.9838813,11.0229275 C22.0014077,11.0229275 11.4770333,21.5473018 11.4770333,34.5297755 C11.4770333,47.5122491 22.0014077,58.0366234 34.9838813,58.0366234 C42.5850177,58.0366234 49.343515,54.4288568 53.6404128,48.832284 L54.2596144,49.3040714 C54.2596144,49.3040714 55.6542958,50.3555003 58.4472852,52.425022 C59.1375332,52.936475 60.3654177,53.8402968 62.1309387,55.1364873 L61.3780922,54.5566369 L62.2816601,55.2281168 L61.3780922,56.3528307 L62.1063203,55.4881406 C55.8256217,63.6315468 45.9714058,68.8773922 34.891957,68.8773922 C15.9222921,68.8773922 0.544340234,53.4994404 0.544340234,34.5297755 C0.544340234,15.5601106 15.9222921,0.182158736 34.891957,0.182158736 C46.22479,0.182158736 56.0257688,5.37540737 62.2816601,13.8393589" id="Line"></path>
                    </g>
                </g>
            </g>
        </g>
    </g>
</svg>