<?xml version="1.0" encoding="UTF-8"?>
<svg width="268px" height="268px" viewBox="0 0 268 268" version="1.1" xmlns="http://www.w3.org/2000/svg" xmlns:xlink="http://www.w3.org/1999/xlink">
    <!-- Generator: Sketch 50.2 (55047) - http://www.bohemiancoding.com/sketch -->
    <title>Fitbit-App</title>
    <desc>Created with Sketch.</desc>
    <defs>
        <filter x="-2.7%" y="-1.9%" width="105.4%" height="105.4%" filterUnits="objectBoundingBox" id="filter-1">
            <feOffset dx="0" dy="2" in="SourceAlpha" result="shadowOffsetOuter1"></feOffset>
            <feGaussianBlur stdDeviation="2" in="shadowOffsetOuter1" result="shadowBlurOuter1"></feGaussianBlur>
            <feColorMatrix values="0 0 0 0 0   0 0 0 0 0   0 0 0 0 0  0 0 0 0.5 0" type="matrix" in="shadowBlurOuter1" result="shadowMatrixOuter1"></feColorMatrix>
            <feMerge>
                <feMergeNode in="shadowMatrixOuter1"></feMergeNode>
                <feMergeNode in="SourceGraphic"></feMergeNode>
            </feMerge>
        </filter>
    </defs>
    <g id="Page-1" stroke="none" stroke-width="1" fill="none" fill-rule="evenodd">
        <g id="Desktop-HD" transform="translate(-246.000000, -507.000000)" stroke="#FFFFFF" stroke-width="2">
            <g id="Fitbit-App" filter="url(#filter-1)" transform="translate(250.000000, 509.000000)">
                <rect id="Rectangle-Copy-3" x="1" y="1" width="257.552536" height="257.552536" rx="55"></rect>
                <g id="Fitbit" transform="translate(56.776268, 57.776268)">
                    <circle id="Oval-4" cx="68.989533" cy="10.6340877" r="9.62178919"></circle>
                    <path d="M68.989533,51.4505432 C74.6102691,51.4505432 79.166776,46.8940364 79.166776,41.2733003 C79.166776,39.320052 78.6165727,37.4505978 77.5949731,35.8371271 C75.740222,32.9078123 72.5208021,31.0960574 68.989533,31.0960574 C63.368797,31.0960574 58.8122901,35.6525642 58.8122901,41.2733003 C58.8122901,46.8940364 63.368797,51.4505432 68.989533,51.4505432 Z" id="Oval-4-Copy"></path>
                    <path d="M98.5487884,52.7585716 C104.891929,52.7585716 110.03406,47.6164405 110.03406,41.2733003 C110.03406,39.0691405 109.413087,36.9592309 108.260162,35.1383499 C106.16712,31.8326893 102.533837,29.788029 98.5487884,29.788029 C92.2056482,29.788029 87.0635171,34.9301601 87.0635171,41.2733003 C87.0635171,47.6164405 92.2056482,52.7585716 98.5487884,52.7585716 Z" id="Oval-4-Copy-3"></path>
                    <path d="M98.5487884,84.0870398 C105.340054,84.0870398 110.845463,78.5816309 110.845463,71.7903648 C110.845463,69.4305582 110.180591,67.1714878 108.946201,65.2219449 C106.705342,61.6828274 102.815328,59.4936899 98.5487884,59.4936899 C91.7575223,59.4936899 86.2521134,64.9990988 86.2521134,71.7903648 C86.2521134,78.5816309 91.7575223,84.0870398 98.5487884,84.0870398 Z" id="Oval-4-Copy-6"></path>
                    <path d="M131.243567,85.4199233 C138.770965,85.4199233 144.873126,79.3177621 144.873126,71.7903648 C144.873126,69.174879 144.13614,66.6707839 142.767929,64.5098896 C140.284251,60.5872749 135.972508,58.1608064 131.243567,58.1608064 C123.71617,58.1608064 117.614009,64.2629676 117.614009,71.7903648 C117.614009,79.3177621 123.71617,85.4199233 131.243567,85.4199233 Z" id="Oval-4-Copy-7"></path>
                    <path d="M38.9095239,49.7838678 C43.6733378,49.7838678 47.535172,45.9220336 47.535172,41.1582197 C47.535172,39.5026048 47.0689155,37.9183811 46.2030956,36.5509422 C44.6310068,34.0680521 41.9025161,32.5325716 38.9095239,32.5325716 C34.14571,32.5325716 30.2838758,36.3944058 30.2838758,41.1582197 C30.2838758,45.9220336 34.14571,49.7838678 38.9095239,49.7838678 Z" id="Oval-4-Copy-2"></path>
                    <circle id="Oval-4" cx="68.989533" cy="132.391753" r="9.62178919"></circle>
                    <path d="M68.989533,111.985381 C74.6102691,111.985381 79.166776,107.428874 79.166776,101.808138 C79.166776,99.8548895 78.6165727,97.9854353 77.5949731,96.3719645 C75.740222,93.4426497 72.5208021,91.6308948 68.989533,91.6308948 C63.368797,91.6308948 58.8122901,96.1874017 58.8122901,101.808138 C58.8122901,107.428874 63.368797,111.985381 68.989533,111.985381 Z" id="Oval-4-Copy"></path>
                    <path d="M98.5487884,113.293409 C104.891929,113.293409 110.03406,108.151278 110.03406,101.808138 C110.03406,99.603978 109.413087,97.4940683 108.260162,95.6731873 C106.16712,92.3675267 102.533837,90.3228664 98.5487884,90.3228664 C92.2056482,90.3228664 87.0635171,95.4649975 87.0635171,101.808138 C87.0635171,108.151278 92.2056482,113.293409 98.5487884,113.293409 Z" id="Oval-4-Copy-3"></path>
                    <path d="M38.9095239,110.318705 C43.6733378,110.318705 47.535172,106.456871 47.535172,101.693057 C47.535172,100.037442 47.0689155,98.4532185 46.2030956,97.0857796 C44.6310068,94.6028895 41.9025161,93.067409 38.9095239,93.067409 C34.14571,93.067409 30.2838758,96.9292432 30.2838758,101.693057 C30.2838758,106.456871 34.14571,110.318705 38.9095239,110.318705 Z" id="Oval-4-Copy-2"></path>
                    <path d="M38.8531799,81.0129922 C43.9466963,81.0129922 48.0758072,76.8838813 48.0758072,71.7903648 C48.0758072,70.0202349 47.5772521,68.3262682 46.6514956,66.864168 C44.9706519,64.2095151 42.0532752,62.5677375 38.8531799,62.5677375 C33.7596634,62.5677375 29.6305525,66.6968484 29.6305525,71.7903648 C29.6305525,76.8838813 33.7596634,81.0129922 38.8531799,81.0129922 Z" id="Oval-4-Copy-4"></path>
                    <path d="M8.89794687,79.4341639 C10.8824027,79.4341639 12.7452498,78.6760961 14.1563506,77.3380805 C15.6698344,75.9029846 16.5417459,73.9175258 16.5417459,71.7903648 C16.5417459,70.3230924 16.128611,68.9193624 15.3613685,67.7076124 C13.9681483,65.5072199 11.5503175,64.1465658 8.89794687,64.1465658 C4.67639322,64.1465658 1.25414782,67.5688112 1.25414782,71.7903648 C1.25414782,76.0119185 4.67639322,79.4341639 8.89794687,79.4341639 Z" id="Oval-4-Copy-8"></path>
                    <path d="M68.9604212,82.3863985 C74.8402393,82.3863985 79.6067736,77.6198642 79.6067736,71.740046 C79.6067736,69.6968112 79.0311899,67.7411204 77.9624918,66.0532643 C76.0222805,62.9889773 72.654433,61.0936936 68.9604212,61.0936936 C63.080603,61.0936936 58.3140687,65.8602279 58.3140687,71.740046 C58.3140687,77.6198642 63.080603,82.3863985 68.9604212,82.3863985 Z" id="Oval-4-Copy-5"></path>
                </g>
            </g>
        </g>
    </g>
</svg>