<?xml version="1.0" encoding="UTF-8"?>
<svg width="268px" height="268px" viewBox="0 0 268 268" version="1.1" xmlns="http://www.w3.org/2000/svg" xmlns:xlink="http://www.w3.org/1999/xlink">
    <!-- Generator: Sketch 50.2 (55047) - http://www.bohemiancoding.com/sketch -->
    <title>Hack-Western-App</title>
    <desc>Created with Sketch.</desc>
    <defs>
        <filter x="-2.7%" y="-1.9%" width="105.4%" height="105.4%" filterUnits="objectBoundingBox" id="filter-1">
            <feOffset dx="0" dy="2" in="SourceAlpha" result="shadowOffsetOuter1"></feOffset>
            <feGaussianBlur stdDeviation="2" in="shadowOffsetOuter1" result="shadowBlurOuter1"></feGaussianBlur>
            <feColorMatrix values="0 0 0 0 0   0 0 0 0 0   0 0 0 0 0  0 0 0 0.5 0" type="matrix" in="shadowBlurOuter1" result="shadowMatrixOuter1"></feColorMatrix>
            <feMerge>
                <feMergeNode in="shadowMatrixOuter1"></feMergeNode>
                <feMergeNode in="SourceGraphic"></feMergeNode>
            </feMerge>
        </filter>
    </defs>
    <g id="Page-1" stroke="none" stroke-width="1" fill="none" fill-rule="evenodd">
        <g id="Desktop-HD" transform="translate(-926.000000, -507.000000)" stroke="#FFFFFF" stroke-width="2">
            <g id="Hack-Western-App" filter="url(#filter-1)" transform="translate(930.000000, 509.000000)">
                <rect id="Rectangle-Copy-5" x="1.44746356" y="1" width="257.552536" height="257.552536" rx="55"></rect>
                <g id="Hack-Western" transform="translate(79.500000, 49.276268)">
                    <polygon id="Path-15" points="19.0059487 20.0482113 26.1647938 31.8392121 20.1713118 54.6966053 24.5430511 51.9114525 17.2702738 67.2942457 25.3806469 64.0580396 17.2702738 79.9909193 26.1647938 77.3693065 13.1455118 98.0859009 23.0639708 95.1334758 9.297328 114.194891 21.1592372 111.180285 5.7367973 132.157684 18.0905191 127.664512 0.725087159 152.002731 22.2200883 143.268786 54.1358479 159.425335 86.0134981 143.268786 106.830671 152.002731 90.211814 127.664512 101.861165 132.157684 87.0472495 111.180285 98.4102775 114.194891 84.5111569 95.1334758 94.4803138 98.0859009 81.8646757 77.3693065 90.211814 79.9909193 81.8646757 64.0580396 90.211814 67.2942457 82.9615988 51.9114525 87.0472495 54.6966053 81.8646757 31.8392121 89.1324204 20.0482113 86.0134981 0.571773661 76.4346625 6.98516974 69.3996588 17.2798466 65.7805843 17.7432945 53.7778793 14.0311913 42.0476088 17.7432945 38.6297278 17.2798466 31.4760152 6.98516974 22.2200883 0.571773661"></polygon>
                    <polyline id="Path-16" points="22.2399458 143.453223 38.3782582 82.6141556 32.7937432 74.6419955 34.4665687 72.1789056 26.1438612 55.6935674 27.6406217 52.4535111 25.5938648 49.1980463 30.309102 41.892297 31.4239984 42.3995794 31.4239984 41.5067879 26.1438612 31.8943871"></polyline>
                    <polyline id="Path-17" points="34.5011144 72.1347051 41.9090202 62.3144877 43.8558418 62.3144877 39.1784781 48.8913419 42.966376 42.9064113 41.2172618 38.9399152 36.252976 19.5240323 41.9090202 17.8144079"></polyline>
                    <polygon id="Path-18" points="25.786305 48.9419836 30.5396936 45.5782446 38.2117838 48.6972595 30.8139712 51.8328222"></polygon>
                    <polyline id="Path-19" points="31.6950345 42.5208149 38.7736003 48.7975666 30.5969606 56.0331838 27.7192386 52.4001041"></polyline>
                    <polyline id="Path-20" points="66.0649708 17.7207798 71.5429569 19.5136183 66.6112695 39.1440551 64.7083029 42.7581523 68.816595 48.6782297 63.9006966 62.0380738 65.3907815 62.0380738 75.0698199 74.4209748 69.1710348 82.6739763 86.0316273 143.377159"></polyline>
                    <polygon id="Path-22" points="53.8175223 14.1404896 41.6421253 38.174065 53.8175223 31.9150251 66.133785 38.6305239"></polygon>
                    <polyline id="Path-23" points="41.2528609 38.9773439 53.851331 45.4822648 66.4754767 38.9773439"></polyline>
                    <polyline id="Path-24" points="43.2752179 43.0254487 53.7915338 62.9290789 42.530809 79.3179581 48.6683337 86.3546312 39.7102156 94.2521911 48.6683337 102.183596 59.0393255 102.183596 68.0986496 94.2521911 59.0393255 86.3546312 65.3233497 79.3179581 53.9044326 62.9290789 64.6120595 42.6560982"></polyline>
                    <polyline id="Path-25" points="29.8866009 114.733884 53.7497406 150.327437 77.9563788 114.733884"></polyline>
                    <path d="M44.4140446,81.4652842 L39.8809324,93.9742585" id="Path-26"></path>
                    <path d="M38.3887578,82.6229315 L42.2298695,87.326154" id="Path-28"></path>
                    <path d="M63.3025022,81.6055938 L67.9836801,94.0663203" id="Path-29"></path>
                    <path d="M69.1965697,82.6635654 L65.5175592,87.3344454" id="Path-30"></path>
                    <path d="M43.8384408,62.2408572 L47.6260947,71.8240073" id="Path-32"></path>
                    <path d="M63.8312353,62.1075869 L60.0168208,71.6216539" id="Path-33"></path>
                    <path d="M48.6530656,86.3224638 L59.2071166,86.3224638" id="Path-34"></path>
                    <polyline id="Path-35" points="73.2167517 72.0305274 81.7511757 55.9019245 80.0389547 52.3647099"></polyline>
                    <polygon id="Path-36" points="68.7602497 48.7563494 77.1635512 56.1176741 82.2734346 49.0667496 77.1635512 41.6929485"></polygon>
                    <polygon id="Path-37" points="69.1052435 48.8275084 76.9458168 45.6821265 82.0664687 48.8275084 76.9458168 51.9328718"></polygon>
                    <polyline id="Path-38" points="76.5649373 42.1769118 76.1272383 41.5723215 81.8287999 31.8850941"></polyline>
                </g>
            </g>
        </g>
    </g>
</svg>