<?xml version="1.0" encoding="UTF-8"?>
<svg width="268px" height="268px" viewBox="0 0 268 268" version="1.1" xmlns="http://www.w3.org/2000/svg" xmlns:xlink="http://www.w3.org/1999/xlink">
    <!-- Generator: Sketch 50.2 (55047) - http://www.bohemiancoding.com/sketch -->
    <title>Hack-the-North-App</title>
    <desc>Created with Sketch.</desc>
    <defs>
        <filter x="-2.7%" y="-1.9%" width="105.4%" height="105.4%" filterUnits="objectBoundingBox" id="filter-1">
            <feOffset dx="0" dy="2" in="SourceAlpha" result="shadowOffsetOuter1"></feOffset>
            <feGaussianBlur stdDeviation="2" in="shadowOffsetOuter1" result="shadowBlurOuter1"></feGaussianBlur>
            <feColorMatrix values="0 0 0 0 0   0 0 0 0 0   0 0 0 0 0  0 0 0 0.5 0" type="matrix" in="shadowBlurOuter1" result="shadowMatrixOuter1"></feColorMatrix>
            <feMerge>
                <feMergeNode in="shadowMatrixOuter1"></feMergeNode>
                <feMergeNode in="SourceGraphic"></feMergeNode>
            </feMerge>
        </filter>
    </defs>
    <g id="Page-1" stroke="none" stroke-width="1" fill="none" fill-rule="evenodd">
        <g id="Desktop-HD" transform="translate(-586.000000, -183.000000)" stroke="#FFFFFF" stroke-width="2">
            <g id="Hack-the-North-App" filter="url(#filter-1)" transform="translate(590.000000, 185.000000)">
                <rect id="Rectangle-Copy" x="1.22373178" y="1.06299905" width="257.552536" height="257.552536" rx="55"></rect>
                <g id="HTN" transform="translate(45.000000, 47.839267)">
                    <path d="M7.68836984,46.615298 C2.69139503,57.6501498 0,69.5048606 0,81.9881803 C0,119.575056 24.3999936,151.463008 58.2244889,162.676544 M158.639826,124.42453 C165.850411,111.936958 169.976361,97.4444028 169.976361,81.9881803 C169.976361,43.8730847 144.885747,11.6182158 110.320292,0.839345522" id="Oval-3"></path>
                    <polyline id="Path-7" points="8.07927282 46.7340426 9.07291547 49.9250618 9.86339111 52.0088328 10.5707379 53.8763995 11.3458364 55.9762413 12.1010488 57.4783416 12.9101388 59.1971087 13.6802658 60.5751516 14.6099448 61.5743166 12.9101388 64.8469345 11.7242874 67.2634168 10.5707379 69.8251346 9.39608065 72.5510746 8.07927282 75.1971227 6.74534753 77.7691968 6.08870546 79.6653957 6.08870546 81.2533697 6.08870546 82.5323793 7.25626093 83.9765973 8.43220012 85.2329215 9.86339111 86.6916878 11.3458364 87.7818172 12.5424392 88.6081062 14.6099448 88.6081062 16.6445412 87.7818172 19.0491876 86.6916878 21.2430084 85.6131476 23.5026659 84.5799782 25.6935276 83.4479302 28.0892972 82.2152776 30.0609495 81.2533697 31.8895855 80.3900938 33.251939 79.6653957 34.6648414 80.815444 36.4656139 81.8212431 38.1993166 82.8773445 40.1334888 83.9765973 42.8613374 84.9254467 44.9247431 85.6131476 46.6719225 86.1613226 48.3049199 86.4318761 48.7928064 87.7818172 49.2698553 89.2436583 49.8299281 90.7380889 50.3331033 92.2412283 50.8954985 93.9686678 51.4180267 95.7971294 52.0909269 97.9048532 52.6761584 99.6202939 53.2004284 101.257549 53.7599206 103.024081 54.2659988 104.288212 55.1246868 105.730003 56.342758 106.94401 57.7218454 107.513953 59.1878272 107.513953 64.9617637 107.513953 66.6731402 106.504893 67.7886411 104.669077 68.6225574 102.718305 69.3335828 100.719151 70.1398244 98.882368 70.77189 96.7059413 71.5597464 94.6609209 72.2672883 92.536747 72.9405755 90.7380889 73.5101312 88.8991768 74.163485 87.2164425 74.6000863 86.1613226 76.8307011 85.6131476 79.1187939 84.9254467 81.2956076 83.9765973 83.316437 83.4479302 85.3606834 82.5323793 87.0283224 81.5141118 88.6462245 80.3900938 89.7984959 79.6653957 91.8471265 80.815444 93.4218717 81.8212431 95.2917179 82.5323793 97.5260301 83.7484018 99.9529645 84.9254467 101.500474 85.6131476 103.45232 86.6916878 104.621829 87.2164425 106.032944 87.9924908 107.611769 88.6081062 110.832963 88.6081062 112.003782 87.7818172 113.033359 86.6916878 114.010789 85.7855435 115.081507 84.5799782 116.261236 83.2780301 116.842715 82.2152776 116.842715 79.4775841 115.865154 77.7691968 114.876587 75.6918126 113.732759 73.6511332 112.786512 71.4186365 112.003782 69.8251346 111.118855 67.9943568 110.212046 66.1359301 109.357123 64.309997 108.525783 62.4320478 108.525783 60.8103792 110.006734 58.4265512 111.118855 56.1808212 112.215384 53.8763995 113.033359 51.4453968 113.732759 49.1361208 114.234445 47.277432 114.454825 46.2346219 118.077228 45.2004369 121.454003 44.0203313 125.711303 42.7361534 129.957081 41.3590538 133.469522 39.8823422 135.290044 38.4100908 135.960938 36.9344942 135.960938 28.728393 134.036344 27.3289922 131.117116 26.2169053 127.664146 24.7940883 124.039084 23.6210447 120.905393 22.2859458 116.842715 20.8988106 114.454825 20.1517202 114.234445 18.2579451 113.732759 16.6594498 113.033359 14.7252851 112.493046 13.0410908 111.676622 11.0409617 110.832963 9.17422325 110.006734 7.53497984 108.979573 5.53978435 108.525783 4.87831282 108.979573 3.40571638 109.610712 2.08989966 110.006734 1.05913697"></polyline>
                    <polyline id="Path-8" points="57.6680543 162.826151 68.5410212 153.045223 68.5410212 140.380296 57.2967752 130.080776 56.8279176 128.606611 57.2967752 127.347305 58.1466435 125.558555 59.0131716 123.779575 60.2948354 122.394882 60.8918575 121.955978 76.3992661 122.560724 78.1409445 120.150475 80.5332846 117.421631 82.2492291 115.824479 84.5555235 114.249911 84.0108438 98.6588099 85.0892521 97.0402393 86.4280225 96.0916013 88.1443317 95.455617 89.9227882 94.9266794 91.6593569 94.9266794 102.180066 106.751937 105.052234 106.325576 108.212767 106.117561 111.464463 106.325576 114.563026 106.751937 125.597738 95.1580938 127.089553 95.1580938 128.319013 95.455617 129.417367 96.0916013 130.742598 96.7438565 131.634266 97.2809041 132.415579 97.8597377 132.933136 98.6588099 132.415579 114.249911 135.247279 116.689212 136.96622 118.522417 137.587546 119.199178 139.306713 121.158413 140.444377 122.560724 156.463988 122.394882 157.453101 122.7905 157.87873 123.372827 158.316681 124.007522"></polyline>
                    <circle id="Oval" cx="61.3944467" cy="33.0248406" r="22.8326455"></circle>
                    <circle id="Oval-2" cx="108.581914" cy="146.173284" r="16.74394"></circle>
                    <polyline id="Path-42" points="7.28441499 47.5145702 7.94024607 46.0789138 8.25825375 47.5145702"></polyline>
                    <polyline id="Path-41" points="109.787542 1.63880395 110.068538 0.710570498 111.37001 1.17468722"></polyline>
                    <polyline id="Path-43" points="158.051515 123.604148 158.540645 124.55942 159.113153 123.604148"></polyline>
                </g>
            </g>
        </g>
    </g>
</svg>