<svg id="Layer_1" data-name="Layer 1" xmlns="http://www.w3.org/2000/svg" xmlns:xlink="http://www.w3.org/1999/xlink" viewBox="0 0 1439.27 2702.94"><defs><style>.cls-1{fill:#595f60;}</style><symbol id="star-circle" data-name="star-circle" viewBox="0 0 4 4"><circle class="cls-1" cx="2" cy="2" r="2"/></symbol></defs><title>stars</title><use width="4" height="4" transform="translate(90.93 82.64)" xlink:href="#star-circle"/><use width="4" height="4" transform="translate(75.33 98.42)" xlink:href="#star-circle"/><use width="4" height="4" transform="translate(40.84 112.93)" xlink:href="#star-circle"/><use width="4" height="4" transform="translate(201.97 39.35)" xlink:href="#star-circle"/><use width="4" height="4" transform="translate(11.99 205.02)" xlink:href="#star-circle"/><use width="4" height="4" transform="translate(346.89 130.81)" xlink:href="#star-circle"/><use width="4" height="4" transform="translate(59.97 325.65)" xlink:href="#star-circle"/><use width="4" height="4" transform="translate(448.7 120.98)" xlink:href="#star-circle"/><use width="4" height="4" transform="translate(196.04 276.57)" xlink:href="#star-circle"/><use width="4" height="4" transform="translate(502.26 184.06)" xlink:href="#star-circle"/><use width="4" height="4" transform="translate(395.04 295.25)" xlink:href="#star-circle"/><use width="4" height="4" transform="translate(487.63 426.13)" xlink:href="#star-circle"/><use width="4" height="4" transform="translate(871.5 261.03)" xlink:href="#star-circle"/><use width="4" height="4" transform="translate(156.24 509.91)" xlink:href="#star-circle"/><use width="4" height="4" transform="translate(589.52 372.62)" xlink:href="#star-circle"/><use width="4" height="4" transform="translate(332.05 227.79)" xlink:href="#star-circle"/><use width="4" height="4" transform="translate(953.65 115.44)" xlink:href="#star-circle"/><use width="4" height="4" transform="translate(516.92 82.12)" xlink:href="#star-circle"/><use width="4" height="4" transform="translate(735.48 67.59)" xlink:href="#star-circle"/><use width="4" height="4" transform="translate(657.55 106.38)" xlink:href="#star-circle"/><use width="4" height="4" transform="translate(938.59 145.42)" xlink:href="#star-circle"/><use width="4" height="4" transform="translate(478.01 371.94)" xlink:href="#star-circle"/><use width="4" height="4" transform="translate(1060.98 334.55)" xlink:href="#star-circle"/><use width="4" height="4" transform="translate(580.27 469.75)" xlink:href="#star-circle"/><use width="4" height="4" transform="translate(1071.23 455.75)" xlink:href="#star-circle"/><use width="4" height="4" transform="translate(462.77 577.12)" xlink:href="#star-circle"/><use width="4" height="4" transform="translate(759.71 629.53)" xlink:href="#star-circle"/><use width="4" height="4" transform="translate(126.22 809.88)" xlink:href="#star-circle"/><use width="4" height="4" transform="translate(457.9 663.99)" xlink:href="#star-circle"/><use width="4" height="4" transform="translate(232.58 664.76)" xlink:href="#star-circle"/><use width="4" height="4" transform="translate(277.64 572.29)" xlink:href="#star-circle"/><use width="4" height="4" transform="translate(190.21 791.12)" xlink:href="#star-circle"/><use width="4" height="4" transform="translate(278.31 689.13)" xlink:href="#star-circle"/><use width="4" height="4" transform="translate(185.12 1051.35)" xlink:href="#star-circle"/><use width="4" height="4" transform="translate(325.31 897.25)" xlink:href="#star-circle"/><use width="4" height="4" transform="translate(0 1158.38)" xlink:href="#star-circle"/><use width="4" height="4" transform="translate(58.55 1066.07)" xlink:href="#star-circle"/><use width="4" height="4" transform="translate(53.63 1168.41)" xlink:href="#star-circle"/><use width="4" height="4" transform="translate(78.77 1148.29)" xlink:href="#star-circle"/><use width="4" height="4" transform="translate(73.15 1240.92)" xlink:href="#star-circle"/><use width="4" height="4" transform="translate(88.04 1275.45)" xlink:href="#star-circle"/><use width="4" height="4" transform="translate(107.36 1343.07)" xlink:href="#star-circle"/><use width="4" height="4" transform="translate(77.98 1613.45)" xlink:href="#star-circle"/><use width="4" height="4" transform="translate(194.19 1599.08)" xlink:href="#star-circle"/><use width="4" height="4" transform="translate(121.37 1744.74)" xlink:href="#star-circle"/><use width="4" height="4" transform="translate(141.52 1719.73)" xlink:href="#star-circle"/><use width="4" height="4" transform="translate(170.65 1923.66)" xlink:href="#star-circle"/><use width="4" height="4" transform="translate(166.09 2121.68)" xlink:href="#star-circle"/><use width="4" height="4" transform="translate(103.23 2218.21)" xlink:href="#star-circle"/><use width="4" height="4" transform="translate(69.31 2426.21)" xlink:href="#star-circle"/><use width="4" height="4" transform="translate(147.49 2406.7)" xlink:href="#star-circle"/><use width="4" height="4" transform="translate(122.46 2528.72)" xlink:href="#star-circle"/><use width="4" height="4" transform="translate(142.04 2499.31)" xlink:href="#star-circle"/><use width="4" height="4" transform="translate(158.27 2488.79)" xlink:href="#star-circle"/><use width="4" height="4" transform="translate(137.77 2563.27)" xlink:href="#star-circle"/><use width="4" height="4" transform="translate(249.73 2573.3)" xlink:href="#star-circle"/><use width="4" height="4" transform="translate(177.13 2597.32)" xlink:href="#star-circle"/><use width="4" height="4" transform="translate(405.06 2612.35)" xlink:href="#star-circle"/><use width="4" height="4" transform="translate(588.76 2577.96)" xlink:href="#star-circle"/><use width="4" height="4" transform="translate(632.6 2572.64)" xlink:href="#star-circle"/><use width="4" height="4" transform="translate(658.38 2586.03)" xlink:href="#star-circle"/><use width="4" height="4" transform="translate(657.99 2595.27)" xlink:href="#star-circle"/><use width="4" height="4" transform="translate(554.82 2617.33)" xlink:href="#star-circle"/><use width="4" height="4" transform="translate(759.43 2631.44)" xlink:href="#star-circle"/><use width="4" height="4" transform="translate(885.08 2636.45)" xlink:href="#star-circle"/><use width="4" height="4" transform="translate(899.64 2582.56)" xlink:href="#star-circle"/><use width="4" height="4" transform="translate(996.44 2562.58)" xlink:href="#star-circle"/><use width="4" height="4" transform="translate(1006.8 2583.46)" xlink:href="#star-circle"/><use width="4" height="4" transform="translate(1292.99 2587.82)" xlink:href="#star-circle"/><use width="4" height="4" transform="translate(1303.91 2571.56)" xlink:href="#star-circle"/><use width="4" height="4" transform="translate(1347.82 2427.44)" xlink:href="#star-circle"/><use width="4" height="4" transform="translate(1201.54 2383.26)" xlink:href="#star-circle"/><use width="4" height="4" transform="translate(1089.98 2291.59)" xlink:href="#star-circle"/><use width="4" height="4" transform="translate(1109.82 2247.45)" xlink:href="#star-circle"/><use width="4" height="4" transform="translate(1201.85 2140.9)" xlink:href="#star-circle"/><use width="4" height="4" transform="translate(1187.27 2072.87)" xlink:href="#star-circle"/><use width="4" height="4" transform="translate(1231.26 1957.13)" xlink:href="#star-circle"/><use width="4" height="4" transform="translate(1172.55 1927.98)" xlink:href="#star-circle"/><use width="4" height="4" transform="translate(1289.57 1826.79)" xlink:href="#star-circle"/><use width="4" height="4" transform="translate(1230.77 1807.21)" xlink:href="#star-circle"/><use width="4" height="4" transform="translate(1244.9 1719.88)" xlink:href="#star-circle"/><use width="4" height="4" transform="translate(1255.79 1641.83)" xlink:href="#star-circle"/><use width="4" height="4" transform="translate(1217.04 1511.36)" xlink:href="#star-circle"/><use width="4" height="4" transform="translate(1313.91 1337.54)" xlink:href="#star-circle"/><use width="4" height="4" transform="translate(1299.5 1245.49)" xlink:href="#star-circle"/><use width="4" height="4" transform="translate(1314.01 1143.76)" xlink:href="#star-circle"/><use width="4" height="4" transform="translate(1182.86 1071.18)" xlink:href="#star-circle"/><use width="4" height="4" transform="translate(1230.36 969.45)" xlink:href="#star-circle"/><use width="4" height="4" transform="translate(1110.63 892.11)" xlink:href="#star-circle"/><use width="4" height="4" transform="translate(1245.99 698.21)" xlink:href="#star-circle"/><use width="4" height="4" transform="translate(1144.26 640.04)" xlink:href="#star-circle"/><use width="4" height="4" transform="translate(1333.09 509.57)" xlink:href="#star-circle"/><use width="4" height="4" transform="translate(1206.73 402.87)" xlink:href="#star-circle"/><use width="4" height="4" transform="translate(1308.14 238.38)" xlink:href="#star-circle"/><use width="4" height="4" transform="translate(1175.57 184.51)" xlink:href="#star-circle"/><use width="4" height="4" transform="translate(1169.3 185.93)" xlink:href="#star-circle"/><use width="4" height="4" transform="translate(1259.73 301.43)" xlink:href="#star-circle"/><use width="4" height="4" transform="translate(930.78 712.15)" xlink:href="#star-circle"/><use width="4" height="4" transform="translate(1314.15 703.15)" xlink:href="#star-circle"/><use width="4" height="4" transform="translate(909.96 770.86)" xlink:href="#star-circle"/><use width="4" height="4" transform="translate(1076.53 833.46)" xlink:href="#star-circle"/><use width="4" height="4" transform="translate(1013.99 892.07)" xlink:href="#star-circle"/><use width="4" height="4" transform="translate(735.01 978.49)" xlink:href="#star-circle"/><use width="4" height="4" transform="translate(676.29 1051.51)" xlink:href="#star-circle"/><use width="4" height="4" transform="translate(647.23 1124.25)" xlink:href="#star-circle"/><use width="4" height="4" transform="translate(910.94 1129.84)" xlink:href="#star-circle"/><use width="4" height="4" transform="translate(486.03 1197.06)" xlink:href="#star-circle"/><use width="4" height="4" transform="translate(969.6 1148.74)" xlink:href="#star-circle"/><use width="4" height="4" transform="translate(550.05 1205.63)" xlink:href="#star-circle"/><use width="4" height="4" transform="translate(1193.46 1221.45)" xlink:href="#star-circle"/><use width="4" height="4" transform="translate(355.37 1361.8)" xlink:href="#star-circle"/><use width="4" height="4" transform="translate(1095.6 1361.68)" xlink:href="#star-circle"/><use width="4" height="4" transform="translate(604.53 1433.76)" xlink:href="#star-circle"/><use width="4" height="4" transform="translate(915.56 1439.21)" xlink:href="#star-circle"/><use width="4" height="4" transform="translate(580.37 1478.84)" xlink:href="#star-circle"/><use width="4" height="4" transform="translate(716.42 1410.27)" xlink:href="#star-circle"/><use width="4" height="4" transform="translate(643.14 1375.99)" xlink:href="#star-circle"/><use width="4" height="4" transform="translate(818.92 1289.54)" xlink:href="#star-circle"/><use width="4" height="4" transform="translate(672.07 1236.46)" xlink:href="#star-circle"/><use width="4" height="4" transform="translate(755.04 1202.43)" xlink:href="#star-circle"/><use width="4" height="4" transform="translate(744.93 1110.5)" xlink:href="#star-circle"/><use width="4" height="4" transform="translate(759.74 1071.1)" xlink:href="#star-circle"/><use width="4" height="4" transform="translate(749.95 1017.62)" xlink:href="#star-circle"/><use width="4" height="4" transform="translate(83.29 1031.61)" xlink:href="#star-circle"/><use width="4" height="4" transform="translate(467.25 921.34)" xlink:href="#star-circle"/><use width="4" height="4" transform="translate(461.82 900.3)" xlink:href="#star-circle"/><use width="4" height="4" transform="translate(521.03 872.09)" xlink:href="#star-circle"/><use width="4" height="4" transform="translate(564.81 799.81)" xlink:href="#star-circle"/><use width="4" height="4" transform="translate(535.13 760.62)" xlink:href="#star-circle"/><use width="4" height="4" transform="translate(574.62 683.15)" xlink:href="#star-circle"/><use width="4" height="4" transform="translate(784.17 717.69)" xlink:href="#star-circle"/><use width="4" height="4" transform="translate(930.11 911.24)" xlink:href="#star-circle"/><use width="4" height="4" transform="translate(647.98 668.55)" xlink:href="#star-circle"/><use width="4" height="4" transform="translate(997.22 208.32)" xlink:href="#star-circle"/><use width="4" height="4" transform="translate(828.17 315.31)" xlink:href="#star-circle"/><use width="4" height="4" transform="translate(926.06 425.45)" xlink:href="#star-circle"/><use width="4" height="4" transform="translate(910.25 435.97)" xlink:href="#star-circle"/><use width="4" height="4" transform="translate(894.43 446.51)" xlink:href="#star-circle"/><use width="4" height="4" transform="translate(1086.36 567.07)" xlink:href="#star-circle"/><use width="4" height="4" transform="translate(1051.49 577.02)" xlink:href="#star-circle"/><use width="4" height="4" transform="translate(1154.11 770.69)" xlink:href="#star-circle"/><use width="4" height="4" transform="translate(1265.88 915.56)" xlink:href="#star-circle"/><use width="4" height="4" transform="translate(1247.28 969.5)" xlink:href="#star-circle"/><use width="4" height="4" transform="translate(1309.35 1061.26)" xlink:href="#star-circle"/><use width="4" height="4" transform="translate(857.4 1544.89)" xlink:href="#star-circle"/><use width="4" height="4" transform="translate(848.88 1594.33)" xlink:href="#star-circle"/><use width="4" height="4" transform="translate(836.06 1594.33)" xlink:href="#star-circle"/><use width="4" height="4" transform="translate(701.75 1706.09)" xlink:href="#star-circle"/><use width="4" height="4" transform="translate(648.1 1720.95)" xlink:href="#star-circle"/><use width="4" height="4" transform="translate(556.42 1651.44)" xlink:href="#star-circle"/><use width="4" height="4" transform="translate(511.14 1646.26)" xlink:href="#star-circle"/><use width="4" height="4" transform="translate(526.06 1603.19)" xlink:href="#star-circle"/><use width="4" height="4" transform="translate(358.94 1648.37)" xlink:href="#star-circle"/><use width="4" height="4" transform="translate(525.64 1678.44)" xlink:href="#star-circle"/><use width="4" height="4" transform="translate(599.25 1856.07)" xlink:href="#star-circle"/><use width="4" height="4" transform="translate(550.02 1899.77)" xlink:href="#star-circle"/><use width="4" height="4" transform="translate(623.65 1938.45)" xlink:href="#star-circle"/><use width="4" height="4" transform="translate(286.83 2049.57)" xlink:href="#star-circle"/><use width="4" height="4" transform="translate(438.85 2078.79)" xlink:href="#star-circle"/><use width="4" height="4" transform="translate(535.78 2155.37)" xlink:href="#star-circle"/><use width="4" height="4" transform="translate(331.44 2363.84)" xlink:href="#star-circle"/><use width="4" height="4" transform="translate(511.51 2354.46)" xlink:href="#star-circle"/><use width="4" height="4" transform="translate(259.46 2460.55)" xlink:href="#star-circle"/><use width="4" height="4" transform="translate(642.97 2518.82)" xlink:href="#star-circle"/><use width="4" height="4" transform="translate(710.36 2393.36)" xlink:href="#star-circle"/><use width="4" height="4" transform="translate(749.38 2320.43)" xlink:href="#star-circle"/><use width="4" height="4" transform="translate(700.74 2214.12)" xlink:href="#star-circle"/><use width="4" height="4" transform="translate(841.5 2209.19)" xlink:href="#star-circle"/><use width="4" height="4" transform="translate(763.94 2136.61)" xlink:href="#star-circle"/><use width="4" height="4" transform="translate(836.79 2059.22)" xlink:href="#star-circle"/><use width="4" height="4" transform="translate(739.84 2005.88)" xlink:href="#star-circle"/><use width="4" height="4" transform="translate(997.86 1826.58)" xlink:href="#star-circle"/><use width="4" height="4" transform="translate(890.93 1778.75)" xlink:href="#star-circle"/><use width="4" height="4" transform="translate(886.03 1715.43)" xlink:href="#star-circle"/><use width="4" height="4" transform="translate(939.68 1662.2)" xlink:href="#star-circle"/><use width="4" height="4" transform="translate(963.86 1612.78)" xlink:href="#star-circle"/><use width="4" height="4" transform="translate(1017.59 1729.78)" xlink:href="#star-circle"/><use width="4" height="4" transform="translate(1026.55 2316.17)" xlink:href="#star-circle"/><use width="4" height="4" transform="translate(996.71 2364.73)" xlink:href="#star-circle"/><use width="4" height="4" transform="translate(1224.65 2533.18)" xlink:href="#star-circle"/><use width="4" height="4" transform="translate(1244.7 2553.35)" xlink:href="#star-circle"/><use width="4" height="4" transform="translate(982.31 2447.04)" xlink:href="#star-circle"/><use width="4" height="4" transform="translate(773.56 2412.98)" xlink:href="#star-circle"/><use width="4" height="4" transform="translate(822.4 2417.85)" xlink:href="#star-circle"/><use width="4" height="4" transform="translate(890.17 2417.8)" xlink:href="#star-circle"/><use width="4" height="4" transform="translate(613.43 2422.27)" xlink:href="#star-circle"/><use width="4" height="4" transform="translate(297.99 2209.01)" xlink:href="#star-circle"/><use width="4" height="4" transform="translate(267.69 2213.98)" xlink:href="#star-circle"/><use width="4" height="4" transform="translate(375.03 2069.61)" xlink:href="#star-circle"/><use width="4" height="4" transform="translate(229.03 1841.48)" xlink:href="#star-circle"/><use width="4" height="4" transform="translate(384.18 1663.3)" xlink:href="#star-circle"/><use width="4" height="4" transform="translate(379.8 1613.37)" xlink:href="#star-circle"/><use width="4" height="4" transform="translate(375.15 1564.3)" xlink:href="#star-circle"/><use width="4" height="4" transform="translate(561.66 1672.42)" xlink:href="#star-circle"/><use width="4" height="4" transform="translate(569.62 1977.42)" xlink:href="#star-circle"/><use width="4" height="4" transform="translate(355.23 1841.86)" xlink:href="#star-circle"/><use width="4" height="4" transform="translate(414.26 1667.89)" xlink:href="#star-circle"/><use width="4" height="4" transform="translate(413.68 1486.83)" xlink:href="#star-circle"/><use width="4" height="4" transform="translate(316.83 1298.86)" xlink:href="#star-circle"/><use width="4" height="4" transform="translate(321.65 1197.26)" xlink:href="#star-circle"/><use width="4" height="4" transform="translate(340.96 1056.48)" xlink:href="#star-circle"/><use width="4" height="4" transform="translate(389.46 1022.79)" xlink:href="#star-circle"/><use width="4" height="4" transform="translate(516.61 940.6)" xlink:href="#star-circle"/><use width="4" height="4" transform="translate(594.45 867.76)" xlink:href="#star-circle"/><use width="4" height="4" transform="translate(774.15 687.64)" xlink:href="#star-circle"/><use width="4" height="4" transform="translate(705.88 522.8)" xlink:href="#star-circle"/><use width="4" height="4" transform="translate(652.69 343.76)" xlink:href="#star-circle"/><use width="4" height="4" transform="translate(725.65 300.15)" xlink:href="#star-circle"/><use width="4" height="4" transform="translate(671.66 256.56)" xlink:href="#star-circle"/><use width="4" height="4" transform="translate(686.83 226.6)" xlink:href="#star-circle"/><use width="4" height="4" transform="translate(812.41 299.48)" xlink:href="#star-circle"/><use width="4" height="4" transform="translate(399.69 509.44)" xlink:href="#star-circle"/><use width="4" height="4" transform="translate(341.39 514.03)" xlink:href="#star-circle"/><use width="4" height="4" transform="translate(491.79 513.9)" xlink:href="#star-circle"/><use width="4" height="4" transform="translate(311.25 508.97)" xlink:href="#star-circle"/><use width="4" height="4" transform="translate(292.22 459.84)" xlink:href="#star-circle"/><use width="4" height="4" transform="translate(220.02 368.4)" xlink:href="#star-circle"/><use width="4" height="4" transform="translate(447.24 955.54)" xlink:href="#star-circle"/><use width="4" height="4" transform="translate(335.05 1569.82)" xlink:href="#star-circle"/><use width="4" height="4" transform="translate(504.75 1658.62)" xlink:href="#star-circle"/><use width="4" height="4" transform="translate(324.58 1618.92)" xlink:href="#star-circle"/><use width="4" height="4" transform="translate(320.54 1539.89)" xlink:href="#star-circle"/><use width="4" height="4" transform="translate(740.27 1628.26)" xlink:href="#star-circle"/><use width="4" height="4" transform="translate(808.02 1764.13)" xlink:href="#star-circle"/><use width="4" height="4" transform="translate(973.17 1932.73)" xlink:href="#star-circle"/><use width="4" height="4" transform="translate(968.29 1972.18)" xlink:href="#star-circle"/><use width="4" height="4" transform="translate(1031.56 2067.93)" xlink:href="#star-circle"/><use width="4" height="4" transform="translate(1041.4 2121.26)" xlink:href="#star-circle"/><use width="4" height="4" transform="translate(1050.89 2196.51)" xlink:href="#star-circle"/><use width="4" height="4" transform="translate(996.6 2155.5)" xlink:href="#star-circle"/><use width="4" height="4" transform="translate(875.96 2020.12)" xlink:href="#star-circle"/><use width="4" height="4" transform="translate(1090.45 1420.13)" xlink:href="#star-circle"/><use width="4" height="4" transform="translate(783.86 1294.53)" xlink:href="#star-circle"/><use width="4" height="4" transform="translate(999.4 1168.5)" xlink:href="#star-circle"/><use width="4" height="4" transform="translate(915.37 1071.19)" xlink:href="#star-circle"/><use width="4" height="4" transform="translate(936.66 1065.92)" xlink:href="#star-circle"/><use width="4" height="4" transform="translate(1172.37 1216.17)" xlink:href="#star-circle"/><use width="4" height="4" transform="translate(1071.11 1313.01)" xlink:href="#star-circle"/><use width="4" height="4" transform="translate(1178.24 1424.52)" xlink:href="#star-circle"/><use width="4" height="4" transform="translate(1266.12 1714.57)" xlink:href="#star-circle"/><use width="4" height="4" transform="translate(1323.96 1782.69)" xlink:href="#star-circle"/><use width="4" height="4" transform="translate(1371.87 2029.27)" xlink:href="#star-circle"/><use width="4" height="4" transform="translate(1327.91 2391.48)" xlink:href="#star-circle"/><use width="4" height="4" transform="translate(1322.05 2408.11)" xlink:href="#star-circle"/><use width="4" height="4" transform="translate(1051.05 2187.37)" xlink:href="#star-circle"/><use width="4" height="4" transform="translate(919.06 2243.07)" xlink:href="#star-circle"/><use width="4" height="4" transform="translate(1006.1 2295.91)" xlink:href="#star-circle"/><use width="4" height="4" transform="translate(1113.51 2387.87)" xlink:href="#star-circle"/><use width="4" height="4" transform="translate(1123.83 2408.67)" xlink:href="#star-circle"/><use width="4" height="4" transform="translate(1032.13 1908.73)" xlink:href="#star-circle"/><use width="4" height="4" transform="translate(837.8 1139.59)" xlink:href="#star-circle"/><use width="4" height="4" transform="translate(823.36 1066.21)" xlink:href="#star-circle"/><use width="4" height="4" transform="translate(901.36 1007.65)" xlink:href="#star-circle"/><use width="4" height="4" transform="translate(988.33 891.97)" xlink:href="#star-circle"/><use width="4" height="4" transform="translate(961.28 774.97)" xlink:href="#star-circle"/><use width="4" height="4" transform="translate(900.25 702.28)" xlink:href="#star-circle"/><use width="4" height="4" transform="translate(925.16 639.38)" xlink:href="#star-circle"/><use width="4" height="4" transform="translate(954.43 591.07)" xlink:href="#star-circle"/><use width="4" height="4" transform="translate(968.93 518.52)" xlink:href="#star-circle"/><use width="4" height="4" transform="translate(1022.21 397.35)" xlink:href="#star-circle"/><use width="4" height="4" transform="translate(1089.27 188.88)" xlink:href="#star-circle"/><use width="4" height="4" transform="translate(1166.88 163.3)" xlink:href="#star-circle"/><use width="4" height="4" transform="translate(948.99 781.23)" xlink:href="#star-circle"/><use width="4" height="4" transform="translate(828.13 954.34)" xlink:href="#star-circle"/><use width="4" height="4" transform="translate(662.18 1173.21)" xlink:href="#star-circle"/><use width="4" height="4" transform="translate(550.01 1265.7)" xlink:href="#star-circle"/><use width="4" height="4" transform="translate(574.37 1462.21)" xlink:href="#star-circle"/><use width="4" height="4" transform="translate(561.1 1693.55)" xlink:href="#star-circle"/><use width="4" height="4" transform="translate(428.61 1957.49)" xlink:href="#star-circle"/><use width="4" height="4" transform="translate(380.18 2039.25)" xlink:href="#star-circle"/><use width="4" height="4" transform="translate(535.77 2181)" xlink:href="#star-circle"/><use width="4" height="4" transform="translate(398.59 2384.83)" xlink:href="#star-circle"/><use width="4" height="4" transform="translate(458.11 2480.6)" xlink:href="#star-circle"/><use width="4" height="4" transform="translate(406.06 2377.3)" xlink:href="#star-circle"/><use width="4" height="4" transform="translate(155.83 1817.23)" xlink:href="#star-circle"/><use width="4" height="4" transform="translate(285.87 1525.59)" xlink:href="#star-circle"/><use width="4" height="4" transform="translate(170.67 1202.23)" xlink:href="#star-circle"/><use width="4" height="4" transform="translate(258.17 1168.35)" xlink:href="#star-circle"/><use width="4" height="4" transform="translate(233.61 1124.18)" xlink:href="#star-circle"/><use width="4" height="4" transform="translate(311.2 1076.16)" xlink:href="#star-circle"/><use width="4" height="4" transform="translate(428.08 693.61)" xlink:href="#star-circle"/><use width="4" height="4" transform="translate(579.81 600.71)" xlink:href="#star-circle"/><use width="4" height="4" transform="translate(399.61 478.92)" xlink:href="#star-circle"/><use width="4" height="4" transform="translate(447.8 391.93)" xlink:href="#star-circle"/><use width="4" height="4" transform="translate(517.32 503.74)" xlink:href="#star-circle"/><use width="4" height="4" transform="translate(735.72 547.5)" xlink:href="#star-circle"/><use width="4" height="4" transform="translate(609.12 765.53)" xlink:href="#star-circle"/><use width="4" height="4" transform="translate(686.78 809.35)" xlink:href="#star-circle"/><use width="4" height="4" transform="translate(525.97 1003.81)" xlink:href="#star-circle"/><use width="4" height="4" transform="translate(540.11 1119.34)" xlink:href="#star-circle"/><use width="4" height="4" transform="translate(550.04 1222.36)" xlink:href="#star-circle"/><use width="4" height="4" transform="translate(540.02 1497.18)" xlink:href="#star-circle"/><use width="4" height="4" transform="translate(535.99 1564.39)" xlink:href="#star-circle"/><use width="4" height="4" transform="translate(214.21 868.06)" xlink:href="#star-circle"/><use width="4" height="4" transform="translate(184.84 770.09)" xlink:href="#star-circle"/><use width="4" height="4" transform="translate(179.84 615.86)" xlink:href="#star-circle"/><use width="4" height="4" transform="translate(146.5 475.3)" xlink:href="#star-circle"/><use width="4" height="4" transform="translate(132 431.43)" xlink:href="#star-circle"/><use width="4" height="4" transform="translate(249.29 659.06)" xlink:href="#star-circle"/><use width="4" height="4" transform="translate(341.1 881.45)" xlink:href="#star-circle"/><use width="4" height="4" transform="translate(281.73 1299.03)" xlink:href="#star-circle"/><use width="4" height="4" transform="translate(764.47 1550.25)" xlink:href="#star-circle"/><use width="4" height="4" transform="translate(935.25 1226.84)" xlink:href="#star-circle"/><use width="4" height="4" transform="translate(959.37 1371.45)" xlink:href="#star-circle"/><use width="4" height="4" transform="translate(989.4 1623.04)" xlink:href="#star-circle"/><use width="4" height="4" transform="translate(520.62 1375.9)" xlink:href="#star-circle"/><use width="4" height="4" transform="translate(170.13 1463.42)" xlink:href="#star-circle"/><use width="4" height="4" transform="translate(735.23 925.1)" xlink:href="#star-circle"/><use width="4" height="4" transform="translate(769.57 814.24)" xlink:href="#star-circle"/><use width="4" height="4" transform="translate(769.29 431.08)" xlink:href="#star-circle"/><use width="4" height="4" transform="translate(1075.16 257.2)" xlink:href="#star-circle"/><use width="4" height="4" transform="translate(1192.45 1574.36)" xlink:href="#star-circle"/><use width="4" height="4" transform="translate(1143.63 1632.61)" xlink:href="#star-circle"/><use width="4" height="4" transform="translate(1114.57 1749.04)" xlink:href="#star-circle"/><use width="4" height="4" transform="translate(1089.18 2597.29)" xlink:href="#star-circle"/><use width="4" height="4" transform="translate(1128.02 2524.24)" xlink:href="#star-circle"/><use width="4" height="4" transform="translate(545.1 2533.76)" xlink:href="#star-circle"/><use width="4" height="4" transform="translate(399.98 2582.04)" xlink:href="#star-circle"/><use width="4" height="4" transform="translate(265.04 2552.69)" xlink:href="#star-circle"/><use width="4" height="4" transform="translate(108.3 2310.12)" xlink:href="#star-circle"/><use width="4" height="4" transform="translate(88.31 2005.6)" xlink:href="#star-circle"/><use width="4" height="4" transform="translate(321.31 2024.79)" xlink:href="#star-circle"/><use width="4" height="4" transform="translate(409.39 2228.59)" xlink:href="#star-circle"/><use width="4" height="4" transform="translate(206.35 150.84)" xlink:href="#star-circle"/><use width="4" height="4" transform="translate(1331.65 121.96)" xlink:href="#star-circle"/><use width="4" height="4" transform="translate(1404.66 156.39)" xlink:href="#star-circle"/><use width="4" height="4" transform="translate(1405.16 364.62)" xlink:href="#star-circle"/><use width="4" height="4" transform="translate(1410.79 833.9)" xlink:href="#star-circle"/><use width="4" height="4" transform="translate(1401.52 1133.93)" xlink:href="#star-circle"/><use width="4" height="4" transform="translate(1377.19 1381.18)" xlink:href="#star-circle"/><use width="4" height="4" transform="translate(1377.16 1579.09)" xlink:href="#star-circle"/><use width="4" height="4" transform="translate(1377.41 1724.3)" xlink:href="#star-circle"/><use width="4" height="4" transform="translate(1391.57 1879.58)" xlink:href="#star-circle"/><use width="4" height="4" transform="translate(1274.34 2213.42)" xlink:href="#star-circle"/><use width="4" height="4" transform="translate(1337.47 2300.64)" xlink:href="#star-circle"/><use width="4" height="4" transform="translate(1357.1 2213.12)" xlink:href="#star-circle"/><use width="4" height="4" transform="translate(1362.09 2125.97)" xlink:href="#star-circle"/><use width="4" height="4" transform="translate(1401.1 2256.96)" xlink:href="#star-circle"/><use width="4" height="4" transform="translate(1278.28 2655.25)" xlink:href="#star-circle"/><use width="4" height="4" transform="translate(1088.89 2698.94)" xlink:href="#star-circle"/><use width="4" height="4" transform="translate(613.95)" xlink:href="#star-circle"/><use width="4" height="4" transform="translate(1435.27 1255.14)" xlink:href="#star-circle"/><use width="4" height="4" transform="translate(584.39 2305.98)" xlink:href="#star-circle"/><use width="4" height="4" transform="translate(647.48 2073.87)" xlink:href="#star-circle"/><use width="4" height="4" transform="translate(1260.25 538.52)" xlink:href="#star-circle"/><use width="4" height="4" transform="translate(477.1 1793.82)" xlink:href="#star-circle"/><use width="4" height="4" transform="translate(369.55 1755.03)" xlink:href="#star-circle"/><use width="4" height="4" transform="translate(798.29 1870.6)" xlink:href="#star-circle"/></svg>