<?xml version="1.0" encoding="UTF-8"?>
<svg width="268px" height="268px" viewBox="0 0 268 268" version="1.1" xmlns="http://www.w3.org/2000/svg" xmlns:xlink="http://www.w3.org/1999/xlink">
    <!-- Generator: Sketch 50.2 (55047) - http://www.bohemiancoding.com/sketch -->
    <title>Wato-App</title>
    <desc>Created with Sketch.</desc>
    <defs>
        <filter x="-2.7%" y="-1.9%" width="105.4%" height="105.4%" filterUnits="objectBoundingBox" id="filter-1">
            <feOffset dx="0" dy="2" in="SourceAlpha" result="shadowOffsetOuter1"></feOffset>
            <feGaussianBlur stdDeviation="2" in="shadowOffsetOuter1" result="shadowBlurOuter1"></feGaussianBlur>
            <feColorMatrix values="0 0 0 0 0.211764706   0 0 0 0 0.768627451   0 0 0 0 0.901960784  0 0 0 1 0" type="matrix" in="shadowBlurOuter1" result="shadowMatrixOuter1"></feColorMatrix>
            <feMerge>
                <feMergeNode in="shadowMatrixOuter1"></feMergeNode>
                <feMergeNode in="SourceGraphic"></feMergeNode>
            </feMerge>
        </filter>
    </defs>
    <g id="Page-1" stroke="none" stroke-width="1" fill="none" fill-rule="evenodd">
        <g id="Coloured-Icons" transform="translate(-586.000000, -507.000000)" stroke-width="2">
            <g id="Wato-App" filter="url(#filter-1)" transform="translate(590.000000, 509.000000)">
                <rect id="Rectangle-Copy-4" stroke="#FFFFFF" x="1.22373178" y="1" width="257.552536" height="257.552536" rx="55"></rect>
                <g id="Wato" transform="translate(28.500000, 66.776268)" fill="#36C4E6">
                    <polygon id="Path-9" stroke="#FFFFFF" points="0.81504618 42.5850155 12.3105656 42.5850155 20.4598775 67.5614184 14.9508209 83.8267733"></polygon>
                    <polygon id="Path-10" stroke="#FFFFFF" points="17.1567174 90.4170208 32.5818978 42.7121024 40.1286148 42.7121024 48.259837 67.550433 43.0354285 83.1140637 36.6420095 61.6586358 26.385278 90.4170208"></polygon>
                    <polygon id="Path-11" stroke="#FFFFFF" points="60.7420139 42.6471749 72.1802887 42.6471749 55.979131 90.3726185 45.2290346 90.3726185"></polygon>
                    <path d="" id="Path-12" stroke="#979797"></path>
                    <polygon id="Path-13" stroke="#FFFFFF" points="87.8344928 42.6187438 95.4054831 42.6187438 110.902304 90.5871042 100.314262 90.5871042 97.8979883 82.6018308 89.6245771 82.6018308 92.2277998 74.0852041 95.4054831 74.0852041 91.5526045 61.9443941 81.6020954 90.5871042 72.2328531 90.5871042"></polygon>
                    <polygon id="Path-14" stroke="#FFFFFF" points="111.019374 42.5620237 111.019374 51.6258853 123.755064 51.6258853 123.755064 90.2522291 135.29328 90.2522291 135.29328 51.6258853 148.040314 51.6258853 148.040314 42.5620237"></polygon>
                    <path d="M178.27805,89.5020089 C164.925473,89.5020089 154.10107,78.6776061 154.10107,65.3250286 C154.10107,51.9724511 164.925473,41.1480484 178.27805,41.1480484 C191.630628,41.1480484 202.455031,51.9724511 202.455031,65.3250286 C202.455031,78.6776061 191.630628,89.5020089 178.27805,89.5020089 Z M178.27805,79.296856 C185.994478,79.296856 192.249878,73.0414558 192.249878,65.3250286 C192.249878,57.6086014 185.994478,51.3532013 178.27805,51.3532013 C170.561623,51.3532013 164.306223,57.6086014 164.306223,65.3250286 C164.306223,73.0414558 170.561623,79.296856 178.27805,79.296856 Z" id="Combined-Shape" stroke="#FFFFFF"></path>
                </g>
            </g>
        </g>
    </g>
</svg>